HIERARCHY
ROOT joint_Root
{
	OFFSET 0.0 0.0 0.0
	CHANNELS 6 Xposition Yposition Zposition Zrotation Xrotation Yrotation 
	JOINT Hips
	{
		OFFSET -17.1583 93.1646 452.98
		CHANNELS 6 Xposition Yposition Zposition Zrotation Xrotation Yrotation 
		JOINT Spine
		{
			OFFSET 15.7357 0.0 0.0
			CHANNELS 6 Xposition Yposition Zposition Zrotation Xrotation Yrotation 
			JOINT Chest
			{
				OFFSET 8.98455 -0.406207 0.0
				CHANNELS 6 Xposition Yposition Zposition Zrotation Xrotation Yrotation 
				JOINT Neck
				{
					OFFSET 16.3773 0.0 0.0
					CHANNELS 6 Xposition Yposition Zposition Zrotation Xrotation Yrotation 
					JOINT Head
					{
						OFFSET 6.45672 0.0 0.0
						CHANNELS 6 Xposition Yposition Zposition Zrotation Xrotation Yrotation 
						End Site
						{
							OFFSET 0.0 0.0 0.0
						}
					}
				}
				JOINT Shoulder_L
				{
					OFFSET 12.9942 -0.242716 4.98039
					CHANNELS 6 Xposition Yposition Zposition Zrotation Xrotation Yrotation 
					JOINT UpperArm_L
					{
						OFFSET 5.34809 0.0 0.0
						CHANNELS 6 Xposition Yposition Zposition Zrotation Xrotation Yrotation 
						JOINT LowerArm_L
						{
							OFFSET 24.3286 1.87007e-05 0.0
							CHANNELS 6 Xposition Yposition Zposition Zrotation Xrotation Yrotation 
							JOINT Hand_L
							{
								OFFSET 22.2916 0.0 0.0
								CHANNELS 6 Xposition Yposition Zposition Zrotation Xrotation Yrotation 
								End Site
								{
									OFFSET 0.0 0.0 0.0
								}
							}
						}
					}
				}
				JOINT Shoulder_R
				{
					OFFSET 12.9945 -0.242716 -4.98039
					CHANNELS 6 Xposition Yposition Zposition Zrotation Xrotation Yrotation 
					JOINT UpperArm_R
					{
						OFFSET -5.34813 0.0 0.0
						CHANNELS 6 Xposition Yposition Zposition Zrotation Xrotation Yrotation 
						JOINT LowerArm_R
						{
							OFFSET -24.3289 0.000322201 0.0
							CHANNELS 6 Xposition Yposition Zposition Zrotation Xrotation Yrotation 
							JOINT Hand_R
							{
								OFFSET -22.2915 -0.000108084 0.0
								CHANNELS 6 Xposition Yposition Zposition Zrotation Xrotation Yrotation 
								End Site
								{
									OFFSET 0.0 0.0 0.0
								}
							}
						}
					}
				}
			}
		}
		JOINT UpperLeg_L
		{
			OFFSET -2.19248 -6.46944 0.0
			CHANNELS 6 Xposition Yposition Zposition Zrotation Xrotation Yrotation 
			JOINT LowerLeg_L
			{
				OFFSET 39.0811 0.0 -1.23785e-05
				CHANNELS 6 Xposition Yposition Zposition Zrotation Xrotation Yrotation 
				JOINT Foot_L
				{
					OFFSET 40.9854 0.0 -1.26872e-05
					CHANNELS 6 Xposition Yposition Zposition Zrotation Xrotation Yrotation 
					JOINT Toes_L
					{
						OFFSET 11.7543 0.0 0.0
						CHANNELS 6 Xposition Yposition Zposition Zrotation Xrotation Yrotation 
						End Site
						{
							OFFSET 0.0 0.0 0.0
						}
					}
				}
			}
		}
		JOINT UpperLeg_R
		{
			OFFSET -2.19251 6.46944 0.0
			CHANNELS 6 Xposition Yposition Zposition Zrotation Xrotation Yrotation 
			JOINT LowerLeg_R
			{
				OFFSET -39.0811 -0.00228153 -0.0401928
				CHANNELS 6 Xposition Yposition Zposition Zrotation Xrotation Yrotation 
				JOINT Foot_R
				{
					OFFSET -40.9854 0.0 0.0
					CHANNELS 6 Xposition Yposition Zposition Zrotation Xrotation Yrotation 
					JOINT Toes_R
					{
						OFFSET -11.7543 0.0 0.0
						CHANNELS 6 Xposition Yposition Zposition Zrotation Xrotation Yrotation 
						End Site
						{
							OFFSET 0.0 0.0 0.0
						}
					}
				}
			}
		}
	}
}
MOTION
Frames:	4
Frame Time:	0.0333333
0.000000 0.000000 0.000000 0.000000 0.000000 -0.000000 0.031570 92.694000 3.009800 86.915200 0.440277 3.119030 15.735700 0.000005 -0.000001 92.613300 86.233700 -101.438000 8.984550 -0.406207 -0.000000 -0.106998 0.945994 -17.638200 16.377300 -0.000001 -0.000001 5.159570 -4.296260 -4.608340 6.456720 -0.000001 -0.000000 -3.877110 -1.967740 -11.578000 12.994200 -0.242716 4.980390 -92.154200 6.876520 -72.558900 5.348090 -0.000007 -0.000001 -56.548400 6.588290 2.469620 24.328600 0.000019 0.000005 13.389800 25.896000 -28.592600 22.291600 -0.000001 0.000005 3.068780 4.775980 11.767700 12.994500 -0.242716 -4.980390 93.673300 -6.855640 -61.727400 -5.348130 -0.000001 -0.000004 -28.588200 -58.941500 -67.085500 -24.328900 0.000322 -0.000009 -0.130370 -1.468470 -5.033760 -22.291500 -0.000108 -0.000004 48.701700 5.541850 -8.327830 -2.192480 -6.469440 -0.000000 -173.523000 -4.377800 1.724340 39.081100 -0.000007 -0.000012 0.029368 -0.089276 18.209000 40.985400 -0.000006 -0.000013 0.049082 8.613940 -70.711800 11.754300 -0.000000 0.000003 -0.003661 0.215495 -7.831650 -2.192510 6.469440 -0.000001 175.755000 11.715900 -174.060000 -39.081100 -0.002282 -0.040193 -0.019142 0.115031 11.057400 -40.985400 0.000008 0.000006 -10.345500 11.529800 -66.201400 -11.754300 -0.000006 -0.000006 -0.009922 0.270718 -5.574980
0.000000 0.000000 0.000000 0.000000 0.000000 -0.000000 -0.013481 92.697100 2.992090 86.944800 0.513560 3.122370 15.735700 0.000005 -0.000001 92.713800 86.215200 -101.515000 8.984550 -0.406207 -0.000000 -0.070441 0.956561 -17.592100 16.377300 -0.000001 -0.000001 5.137990 -4.329020 -4.535180 6.456720 -0.000001 -0.000000 -3.799440 -2.002930 -11.576900 12.994200 -0.242716 4.980390 -92.153900 6.877680 -72.564200 5.348090 -0.000007 -0.000001 -56.711300 6.547920 2.560560 24.328600 0.000019 0.000005 13.275400 25.891500 -28.382700 22.291600 -0.000001 0.000005 3.144470 4.775820 11.770700 12.994500 -0.242716 -4.980390 93.680400 -6.867650 -61.722700 -5.348130 -0.000001 -0.000004 -28.596000 -58.849600 -67.080300 -24.328900 0.000322 -0.000009 -0.130083 -1.452810 -5.076590 -22.291500 -0.000108 -0.000004 48.529600 5.540830 -8.280940 -2.192480 -6.469440 -0.000000 -173.522000 -4.385830 1.723190 39.081100 -0.000007 -0.000012 0.029088 -0.088598 18.175900 40.985400 -0.000006 -0.000013 0.026792 8.663920 -70.701600 11.754300 -0.000000 0.000003 -0.003583 0.214659 -7.865690 -2.192510 6.469440 -0.000001 175.771000 11.696100 -174.052000 -39.081100 -0.002282 -0.040193 -0.019065 0.114745 11.047100 -40.985400 0.000008 0.000006 -10.277400 11.431800 -66.252000 -11.754300 -0.000006 -0.000006 -0.009958 0.270990 -5.563860
0.000000 0.000000 0.000000 0.000000 0.000000 -0.000000 -0.060182 92.699300 2.959750 86.929500 0.575537 3.086860 15.735700 0.000005 -0.000001 92.673500 86.204800 -101.431000 8.984550 -0.406207 -0.000000 -0.051044 0.947797 -17.505000 16.377300 -0.000001 -0.000001 5.132570 -4.342420 -4.505770 6.456720 -0.000001 -0.000000 -3.761020 -2.062940 -11.570600 12.994200 -0.242716 4.980390 -92.171400 6.932620 -72.560900 5.348090 -0.000007 -0.000001 -56.827600 6.501720 2.599540 24.328600 0.000019 0.000005 13.280500 26.029200 -28.274100 22.291600 -0.000001 0.000005 3.013990 4.775700 11.772800 12.994500 -0.242716 -4.980390 93.680900 -6.874390 -61.742600 -5.348130 -0.000001 -0.000004 -28.409800 -58.735400 -66.915000 -24.328900 0.000322 -0.000009 -0.120949 -1.335890 -5.129590 -22.291500 -0.000108 -0.000004 48.507900 5.538260 -8.163760 -2.192480 -6.469440 -0.000000 -173.474000 -4.373400 1.624180 39.081100 -0.000007 -0.000012 0.028351 -0.086156 18.214600 40.985400 -0.000006 -0.000013 0.002579 8.716500 -70.673700 11.754300 -0.000000 0.000003 -0.003541 0.214208 -7.884030 -2.192510 6.469440 -0.000001 175.846000 11.694900 -174.101000 -39.081100 -0.002282 -0.040193 -0.018871 0.113885 11.034500 -40.985400 0.000008 0.000006 -10.283000 11.332100 -66.231500 -11.754300 -0.000006 -0.000006 -0.009875 0.270366 -5.589380
0.000000 0.000000 0.000000 0.000000 0.000000 -0.000000 -0.106076 92.714800 2.944630 86.934000 0.638864 3.037760 15.735700 0.000005 -0.000001 92.595700 86.201500 -101.323000 8.984550 -0.406207 -0.000000 -0.045576 0.935329 -17.444200 16.377300 -0.000001 -0.000001 5.157710 -4.369940 -4.463790 6.456720 -0.000001 -0.000000 -3.758130 -2.100290 -11.591900 12.994200 -0.242716 4.980390 -92.181300 6.948380 -72.523600 5.348090 -0.000007 -0.000001 -56.996700 6.595280 2.693190 24.328600 0.000019 0.000005 13.280800 25.951200 -28.341400 22.291600 -0.000001 0.000005 3.023040 4.778980 11.711600 12.994500 -0.242716 -4.980390 93.678000 -6.871150 -61.750800 -5.348130 -0.000001 -0.000004 -28.300100 -58.609300 -66.780100 -24.328900 0.000322 -0.000009 -0.129436 -1.405090 -5.221800 -22.291500 -0.000108 -0.000004 48.468900 5.539340 -8.213010 -2.192480 -6.469440 -0.000000 -173.438000 -4.371330 1.627170 39.081100 -0.000007 -0.000012 0.026760 -0.081963 18.081700 40.985400 -0.000006 -0.000013 -0.034537 8.788970 -70.635300 11.754300 -0.000000 0.000003 -0.003504 0.213805 -7.900430 -2.192510 6.469440 -0.000001 175.882000 11.750600 -174.123000 -39.081100 -0.002282 -0.040193 -0.018637 0.113351 10.971300 -40.985400 0.000008 0.000006 -10.229700 11.314800 -66.219400 -11.754300 -0.000006 -0.000006 -0.009717 0.269174 -5.638130
